<svg width="500" height="47" viewBox="0 0 500 47" fill="none" xmlns="http://www.w3.org/2000/svg">
<path d="M23.5 47C36.4787 47 47 36.4787 47 23.5C47 10.5213 36.4787 0 23.5 0C10.5213 0 0 10.5213 0 23.5C0 36.4787 10.5213 47 23.5 47Z" fill="white"/>
<path d="M205.5 0H78.5C65.5213 0 55 10.5213 55 23.5C55 36.4787 65.5213 47 78.5 47H205.5C218.479 47 229 36.4787 229 23.5C229 10.5213 218.479 0 205.5 0Z" fill="white"/>
<path d="M284 23.5C284 10.5213 273.479 0 260.5 0C247.521 0 237 10.5213 237 23.5C237 36.4787 247.521 47 260.5 47C273.479 47 284 36.4787 284 23.5Z" fill="white"/>
<path d="M476.5 0H315.5C302.521 0 292 10.5213 292 23.5C292 36.4787 302.521 47 315.5 47H476.5C489.479 47 500 36.4787 500 23.5C500 10.5213 489.479 0 476.5 0Z" fill="white"/>
</svg>
