<svg width="71" height="55" viewBox="0 0 71 55" fill="none" xmlns="http://www.w3.org/2000/svg">
<path d="M60.1045 4.97228C55.5792 2.90163 50.7265 1.37607 45.6527 0.502323C45.5603 0.485459 45.468 0.527601 45.4204 0.611887C44.7963 1.71882 44.105 3.16291 43.6209 4.29795C38.1637 3.48322 32.7345 3.48322 27.3892 4.29795C26.905 3.13768 26.1886 1.71882 25.5617 0.611887C25.5141 0.530413 25.4218 0.488272 25.3294 0.502323C20.2584 1.37328 15.4057 2.89884 10.8776 4.97228C10.8384 4.98913 10.8048 5.01726 10.7825 5.05375C1.57795 18.767 -0.943561 32.1433 0.293408 45.3537C0.299005 45.4183 0.335386 45.4801 0.385761 45.5194C6.45866 49.9668 12.3413 52.6668 18.1147 54.4565C18.2071 54.4846 18.305 54.4509 18.3638 54.375C19.7295 52.5152 20.9469 50.5541 21.9907 48.4918C22.0523 48.3711 21.9935 48.2278 21.8676 48.18C19.9366 47.4495 18.0979 46.5589 16.3292 45.5475C16.1893 45.4661 16.1781 45.2665 16.3068 45.171C16.679 44.8928 17.0513 44.6035 17.4067 44.3113C17.471 44.2579 17.5606 44.2466 17.6362 44.2803C29.2558 49.5707 41.8354 49.5707 53.3179 44.2803C53.3935 44.2439 53.4831 44.2551 53.5502 44.3085C53.9057 44.6007 54.2779 44.8928 54.6529 45.171C54.7816 45.2665 54.7732 45.4661 54.6333 45.5475C52.8646 46.5786 51.0259 47.4495 49.0921 48.1772C48.9662 48.225 48.9102 48.3711 48.9718 48.4918C50.038 50.5512 51.2554 52.5123 52.5959 54.3722C52.6519 54.4509 52.7526 54.4846 52.845 54.4565C58.6464 52.6668 64.529 49.9668 70.6019 45.5194C70.6551 45.4801 70.6887 45.4211 70.6943 45.3565C72.1747 30.0838 68.2147 16.8173 60.1968 5.05655C60.1772 5.01726 60.1437 4.98913 60.1045 4.97228ZM23.7259 37.3099C20.2276 37.3099 17.3451 34.1071 17.3451 30.1737C17.3451 26.2404 20.1717 23.0376 23.7259 23.0376C27.308 23.0376 30.1626 26.2685 30.1066 30.1737C30.1066 34.1071 27.28 37.3099 23.7259 37.3099ZM47.3178 37.3099C43.8196 37.3099 40.9371 34.1071 40.9371 30.1737C40.9371 26.2404 43.7636 23.0376 47.3178 23.0376C50.9 23.0376 53.7545 26.2685 53.6986 30.1737C53.6986 34.1071 50.9 37.3099 47.3178 37.3099Z" fill="white"/>
</svg>
