<svg width="1170" height="310" viewBox="0 0 1170 310" fill="none" xmlns="http://www.w3.org/2000/svg">
<g clip-path="url(#clip0_1070_33)">
<rect width="264" height="117" rx="58.5" fill="#FF66AA"/>
<rect x="277" width="117" height="117" rx="58.5" fill="#FF66AA"/>
<rect x="407" width="196" height="117" rx="58.5" fill="#FF66AA"/>
<rect x="615" width="117" height="117" rx="58.5" fill="#FF66AA"/>
<path d="M80.7087 307C68.7087 306.85 57.7587 304.75 47.8587 300.7C37.9587 296.5 29.4087 290.8 22.2087 283.6C15.1587 276.4 9.68369 268.075 5.78369 258.625C2.03369 249.175 0.158692 239.05 0.158692 228.25C0.158692 217.45 2.03369 207.325 5.78369 197.875C9.68369 188.425 15.1587 180.1 22.2087 172.9C29.4087 165.7 37.9587 160.075 47.8587 156.025C57.7587 151.825 68.7087 149.65 80.7087 149.5H100.959V168.625H81.3837C72.8337 168.625 64.9587 170.2 57.7587 173.35C50.5587 176.35 44.2587 180.55 38.8587 185.95C33.6087 191.2 29.4837 197.425 26.4837 204.625C23.4837 211.825 21.9837 219.7 21.9837 228.25C21.9837 236.65 23.4837 244.525 26.4837 251.875C29.4837 259.075 33.6087 265.375 38.8587 270.775C44.2587 276.025 50.5587 280.15 57.7587 283.15C64.9587 286.15 72.8337 287.725 81.3837 287.875H100.959V307H80.7087ZM125.41 307V192.25H146.335V307H125.41ZM135.985 174.025C132.235 174.025 128.935 172.675 126.085 169.975C123.385 167.125 122.035 163.825 122.035 160.075C122.035 156.325 123.385 153.1 126.085 150.4C128.935 147.55 132.235 146.125 135.985 146.125C139.735 146.125 142.96 147.55 145.66 150.4C148.51 153.1 149.935 156.325 149.935 160.075C149.935 163.825 148.51 167.125 145.66 169.975C142.96 172.675 139.735 174.025 135.985 174.025ZM178.348 307V224.875C178.348 214.675 181.198 206.725 186.898 201.025C192.748 195.175 200.773 192.25 210.973 192.25H234.598V210.025H214.798C209.848 210.025 205.948 211.45 203.098 214.3C200.398 217.15 199.048 221.125 199.048 226.225V307H178.348ZM309.305 307C297.455 307 286.88 304.45 277.58 299.35C268.28 294.25 260.93 287.425 255.53 278.875C250.13 270.175 247.43 260.425 247.43 249.625C247.43 238.825 250.13 229.15 255.53 220.6C260.93 211.9 268.28 205 277.58 199.9C286.88 194.8 297.455 192.25 309.305 192.25H322.805V210.025H308.63C300.98 210.025 294.08 211.825 287.93 215.425C281.93 218.875 277.13 223.6 273.53 229.6C270.08 235.6 268.355 242.275 268.355 249.625C268.355 256.975 270.08 263.65 273.53 269.65C277.13 275.65 281.93 280.45 287.93 284.05C294.08 287.5 300.98 289.225 308.63 289.225H322.805V307H309.305ZM346.455 307V142.75H367.155V307H346.455ZM458.343 307C445.743 307 434.568 304.675 424.818 300.025C415.068 295.225 407.418 288.55 401.868 280C396.468 271.3 393.768 261.175 393.768 249.625C393.768 238.225 396.093 228.025 400.743 219.025C405.393 209.875 411.843 202.675 420.093 197.425C428.343 192.175 437.943 189.55 448.893 189.55C460.743 189.55 470.568 192.1 478.368 197.2C486.318 202.3 492.243 209.2 496.143 217.9C500.043 226.45 501.993 236.05 501.993 246.7C501.993 248.35 501.918 250.075 501.768 251.875C501.768 253.675 501.618 255.25 501.318 256.6H415.818C416.568 263.65 418.893 269.65 422.793 274.6C426.693 279.4 431.643 283.075 437.643 285.625C443.793 288.025 450.543 289.225 457.893 289.225H487.818V307H458.343ZM415.593 241.975H481.068C481.068 239.125 480.768 236.125 480.168 232.975C479.568 229.675 478.518 226.525 477.018 223.525C475.518 220.375 473.493 217.6 470.943 215.2C468.543 212.65 465.468 210.625 461.718 209.125C458.118 207.625 453.843 206.875 448.893 206.875C443.643 206.875 438.993 207.925 434.943 210.025C431.043 211.975 427.668 214.675 424.818 218.125C421.968 221.425 419.793 225.175 418.293 229.375C416.793 233.575 415.893 237.775 415.593 241.975ZM527.488 307V190.45C527.488 182.5 529.288 175.45 532.888 169.3C536.488 163.15 541.363 158.35 547.513 154.9C553.663 151.3 560.638 149.5 568.438 149.5H624.463V168.625H570.913C564.313 168.625 558.988 170.725 554.938 174.925C551.038 178.975 549.088 184.15 549.088 190.45V222.4H616.138V241.525H549.088V307H527.488ZM698.404 309.7C686.704 309.7 676.354 307.075 667.354 301.825C658.354 296.425 651.229 289.225 645.979 280.225C640.729 271.075 638.104 260.875 638.104 249.625C638.104 238.375 640.729 228.25 645.979 219.25C651.229 210.1 658.354 202.9 667.354 197.65C676.354 192.25 686.704 189.55 698.404 189.55C710.104 189.55 720.454 192.25 729.454 197.65C738.604 202.9 745.729 210.025 750.829 219.025C756.079 228.025 758.704 238.225 758.704 249.625C758.704 260.875 756.079 271.075 750.829 280.225C745.729 289.225 738.604 296.425 729.454 301.825C720.454 307.075 710.104 309.7 698.404 309.7ZM698.404 291.925C706.354 291.925 713.254 290.05 719.104 286.3C724.954 282.55 729.529 277.525 732.829 271.225C736.129 264.775 737.779 257.575 737.779 249.625C737.779 241.675 736.129 234.55 732.829 228.25C729.529 221.8 724.954 216.7 719.104 212.95C713.254 209.2 706.354 207.325 698.404 207.325C690.604 207.325 683.704 209.2 677.704 212.95C671.854 216.7 667.279 221.8 663.979 228.25C660.679 234.55 659.029 241.675 659.029 249.625C659.029 257.575 660.679 264.775 663.979 271.225C667.279 277.525 671.854 282.55 677.704 286.3C683.704 290.05 690.604 291.925 698.404 291.925ZM784.574 307V224.875C784.574 214.675 787.424 206.725 793.124 201.025C798.974 195.175 806.999 192.25 817.199 192.25H840.824V210.025H821.024C816.074 210.025 812.174 211.45 809.324 214.3C806.624 217.15 805.274 221.125 805.274 226.225V307H784.574ZM859.956 307V237.925C859.956 229.075 861.981 220.975 866.031 213.625C870.081 206.275 875.931 200.425 883.581 196.075C891.231 191.725 900.456 189.55 911.256 189.55C916.506 189.55 921.756 190.3 927.006 191.8C932.256 193.15 937.131 195.55 941.631 199C946.131 202.3 949.731 206.8 952.431 212.5H952.656C955.656 206.8 959.406 202.3 963.906 199C968.406 195.55 973.281 193.15 978.531 191.8C983.781 190.3 989.106 189.55 994.506 189.55C1005.16 189.55 1014.31 191.725 1021.96 196.075C1029.61 200.425 1035.46 206.275 1039.51 213.625C1043.56 220.975 1045.58 229.075 1045.58 237.925V307H1024.88V237.925C1024.88 232.225 1023.53 227.05 1020.83 222.4C1018.13 217.75 1014.46 214.075 1009.81 211.375C1005.31 208.675 1000.13 207.325 994.281 207.325C988.581 207.325 983.331 208.75 978.531 211.6C973.731 214.3 969.906 217.975 967.056 222.625C964.356 227.125 963.006 232.225 963.006 237.925V307H942.306V237.925C942.306 232.225 940.881 227.125 938.031 222.625C935.331 217.975 931.581 214.3 926.781 211.6C922.131 208.75 916.881 207.325 911.031 207.325C905.331 207.325 900.156 208.675 895.506 211.375C891.006 214.075 887.406 217.75 884.706 222.4C882.006 227.05 880.656 232.225 880.656 237.925V307H859.956ZM1076.79 307V289.225H1131.69C1135.29 289.225 1138.36 288.475 1140.91 286.975C1143.61 285.325 1145.64 283.225 1146.99 280.675C1148.34 278.125 1149.01 275.425 1149.01 272.575C1149.01 269.875 1148.41 267.4 1147.21 265.15C1146.01 262.75 1144.14 260.875 1141.59 259.525C1139.19 258.025 1136.26 257.275 1132.81 257.275H1109.64C1102.29 257.275 1095.84 256.075 1090.29 253.675C1084.89 251.125 1080.61 247.45 1077.46 242.65C1074.46 237.85 1072.96 232 1072.96 225.1C1072.96 219.25 1074.39 213.85 1077.24 208.9C1080.09 203.95 1084.06 199.975 1089.16 196.975C1094.26 193.825 1100.11 192.25 1106.71 192.25H1159.59V210.025H1108.74C1104.09 210.025 1100.41 211.45 1097.71 214.3C1095.01 217.15 1093.66 220.525 1093.66 224.425C1093.66 228.175 1095.01 231.475 1097.71 234.325C1100.56 237.025 1104.54 238.375 1109.64 238.375H1131.69C1139.94 238.375 1146.84 239.725 1152.39 242.425C1158.09 244.975 1162.36 248.725 1165.21 253.675C1168.21 258.625 1169.71 264.7 1169.71 271.9C1169.71 278.05 1168.21 283.825 1165.21 289.225C1162.21 294.475 1158.01 298.75 1152.61 302.05C1147.36 305.35 1141.21 307 1134.16 307H1076.79Z" fill="white"/>
</g>
<defs>
<clipPath id="clip0_1070_33">
<rect width="1170" height="310" fill="white"/>
</clipPath>
</defs>
</svg>
