<svg width="762" height="263" viewBox="0 0 762 263" fill="none" xmlns="http://www.w3.org/2000/svg">
<rect x="22" y="30" width="154" height="68" rx="34" fill="#FF66AA"/>
<rect x="184" y="30" width="68" height="68" rx="34" fill="#FF66AA"/>
<rect x="259" y="30" width="115" height="68" rx="34" fill="#FF66AA"/>
<rect x="381" y="30" width="68" height="68" rx="34" fill="#FF66AA"/>
<path d="M79.2715 113.857C83.6628 113.857 87.9847 114.389 92.2373 115.452C95.4268 116.284 97.0215 118.318 97.0215 121.554V121.762C97.0215 123.796 96.1895 125.46 94.5254 126.754C92.9076 128.002 91.1048 128.372 89.1172 127.863C85.8815 127.031 82.5996 126.615 79.2715 126.615C68.4551 126.615 59.2103 130.452 51.5371 138.125C43.8639 145.798 40.0273 155.066 40.0273 165.929C40.0273 176.791 43.8639 186.059 51.5371 193.732C59.2103 201.359 68.4551 205.173 79.2715 205.173C82.5996 205.173 85.8815 204.78 89.1172 203.994C91.1048 203.486 92.9076 203.855 94.5254 205.104C96.1895 206.352 97.0215 208.016 97.0215 210.096V210.234C97.0215 213.516 95.4268 215.573 92.2373 216.405C87.9847 217.468 83.6628 218 79.2715 218C64.8958 218 52.6234 212.915 42.4541 202.746C32.2848 192.577 27.2002 180.304 27.2002 165.929C27.2002 151.553 32.2848 139.281 42.4541 129.111C52.6234 118.942 64.8958 113.857 79.2715 113.857ZM117.198 142.285C118.955 142.285 120.434 142.909 121.636 144.157C122.884 145.405 123.508 146.908 123.508 148.664V211.69C123.508 213.447 122.884 214.926 121.636 216.128C120.434 217.376 118.955 218 117.198 218H117.06C115.303 218 113.801 217.376 112.553 216.128C111.305 214.926 110.681 213.447 110.681 211.69V148.664C110.681 146.908 111.305 145.405 112.553 144.157C113.801 142.909 115.303 142.285 117.06 142.285H117.198ZM117.129 129.111C115.003 129.111 113.2 128.372 111.721 126.893C110.242 125.413 109.502 123.611 109.502 121.484C109.502 119.404 110.242 117.625 111.721 116.146C113.2 114.666 115.003 113.927 117.129 113.927C119.209 113.927 120.989 114.666 122.468 116.146C123.993 117.625 124.756 119.404 124.756 121.484C124.756 123.611 123.993 125.413 122.468 126.893C120.989 128.372 119.209 129.111 117.129 129.111ZM168.507 142.285C160.603 142.285 153.877 145.059 148.33 150.605C142.876 156.152 140.102 162.878 140.01 170.782V211.69C140.01 213.447 140.634 214.926 141.882 216.128C143.13 217.376 144.609 218 146.319 218H146.527C148.238 218 149.717 217.376 150.965 216.128C152.213 214.926 152.837 213.447 152.837 211.69V170.782C152.883 166.437 154.409 162.739 157.413 159.688C160.464 156.638 164.162 155.112 168.507 155.112H172.459C174.215 155.112 175.718 154.488 176.966 153.24C178.168 152.038 178.769 150.559 178.769 148.803V148.664C178.769 146.908 178.168 145.405 176.966 144.157C175.718 142.909 174.215 142.285 172.459 142.285H168.507ZM222.242 142.285C226.171 142.285 229.985 142.886 233.683 144.088C236.641 145.012 238.12 147.023 238.12 150.12V150.467C238.12 152.593 237.265 154.28 235.555 155.528C233.798 156.823 231.903 157.146 229.869 156.499C227.419 155.667 224.877 155.251 222.242 155.251C215.309 155.251 209.392 157.701 204.492 162.601C199.639 167.5 197.212 173.417 197.212 180.351C197.212 187.238 199.639 193.132 204.492 198.031C209.392 202.931 215.309 205.381 222.242 205.381C224.877 205.381 227.419 204.988 229.869 204.202C231.903 203.555 233.798 203.855 235.555 205.104C237.265 206.352 238.12 208.062 238.12 210.234C238.12 213.285 236.641 215.296 233.683 216.267C229.985 217.422 226.171 218 222.242 218C211.796 218 202.874 214.302 195.479 206.906C188.083 199.51 184.385 190.589 184.385 180.143C184.385 169.696 188.083 160.775 195.479 153.379C202.874 145.983 211.796 142.285 222.242 142.285ZM259.268 113.857C260.978 113.857 262.457 114.458 263.705 115.66C264.953 116.908 265.577 118.41 265.577 120.167V211.69C265.577 213.447 264.953 214.926 263.705 216.128C262.457 217.376 260.978 218 259.268 218H259.06C257.349 218 255.87 217.376 254.622 216.128C253.374 214.926 252.75 213.447 252.75 211.69V120.167C252.75 118.41 253.374 116.908 254.622 115.66C255.87 114.458 257.349 113.857 259.06 113.857H259.268ZM318.064 155.251C325.83 155.251 332.209 158.232 337.201 164.195L293.312 184.025C293.127 182.824 293.034 181.599 293.034 180.351C293.034 173.417 295.461 167.5 300.314 162.601C305.214 157.701 311.131 155.251 318.064 155.251ZM352.455 164.403C349.451 157.793 344.874 152.478 338.727 148.456C332.486 144.342 325.599 142.285 318.064 142.285C307.618 142.285 298.697 145.983 291.301 153.379C283.905 160.775 280.207 169.696 280.207 180.143C280.207 190.589 283.905 199.51 291.301 206.906C298.697 214.302 307.618 218 318.064 218C326.2 218 333.573 215.619 340.183 210.858C346.654 206.236 351.184 200.181 353.772 192.692C354.512 190.612 354.258 188.694 353.01 186.938C351.715 185.135 349.982 184.233 347.81 184.233C344.759 184.233 342.725 185.666 341.708 188.532C339.998 193.478 337.016 197.5 332.764 200.597C328.372 203.786 323.473 205.381 318.064 205.381C309.929 205.381 303.365 202.191 298.373 195.812C302.256 194.056 310.738 190.219 323.819 184.303C334.358 179.542 342.864 175.705 349.335 172.793C350.953 172.053 352.062 170.875 352.663 169.257C353.264 167.593 353.195 165.975 352.455 164.403ZM380.259 159.55H411.252C412.962 159.55 414.441 160.151 415.689 161.353C416.938 162.601 417.562 164.103 417.562 165.859V165.998C417.562 167.755 416.938 169.234 415.689 170.436C414.441 171.684 412.962 172.308 411.252 172.308H380.259V211.69C380.259 213.447 379.635 214.926 378.387 216.128C377.139 217.376 375.66 218 373.949 218H373.741C372.031 218 370.552 217.376 369.304 216.128C368.056 214.926 367.432 213.447 367.432 211.69V137.085C367.432 130.66 369.697 125.182 374.227 120.652C378.757 116.122 384.234 113.857 390.659 113.857H411.945C413.656 113.857 415.135 114.458 416.383 115.66C417.631 116.908 418.255 118.41 418.255 120.167V120.306C418.255 122.062 417.631 123.564 416.383 124.812C415.135 126.014 413.656 126.615 411.945 126.615H390.659C387.793 126.615 385.343 127.632 383.31 129.666C381.276 131.7 380.259 134.173 380.259 137.085V159.55ZM463.115 155.251C470.049 155.251 475.942 157.701 480.796 162.601C485.696 167.5 488.146 173.417 488.146 180.351C488.146 187.238 485.696 193.132 480.796 198.031C475.942 202.931 470.049 205.381 463.115 205.381C456.182 205.381 450.265 202.931 445.365 198.031C440.512 193.132 438.085 187.238 438.085 180.351C438.085 173.417 440.512 167.5 445.365 162.601C450.265 157.701 456.182 155.251 463.115 155.251ZM463.115 142.285C452.669 142.285 443.747 145.983 436.352 153.379C428.956 160.775 425.258 169.696 425.258 180.143C425.258 190.589 428.956 199.51 436.352 206.906C443.747 214.302 452.669 218 463.115 218C473.562 218 482.483 214.302 489.879 206.906C497.275 199.51 500.973 190.589 500.973 180.143C500.973 169.696 497.275 160.775 489.879 153.379C482.483 145.983 473.562 142.285 463.115 142.285ZM541.257 142.285C533.353 142.285 526.627 145.059 521.08 150.605C515.626 156.152 512.852 162.878 512.76 170.782V211.69C512.76 213.447 513.384 214.926 514.632 216.128C515.88 217.376 517.359 218 519.069 218H519.277C520.988 218 522.467 217.376 523.715 216.128C524.963 214.926 525.587 213.447 525.587 211.69V170.782C525.633 166.437 527.159 162.739 530.163 159.688C533.214 156.638 536.912 155.112 541.257 155.112H545.209C546.965 155.112 548.468 154.488 549.716 153.24C550.918 152.038 551.519 150.559 551.519 148.803V148.664C551.519 146.908 550.918 145.405 549.716 144.157C548.468 142.909 546.965 142.285 545.209 142.285H541.257ZM572.042 211.69C572.042 213.447 571.418 214.926 570.17 216.128C568.922 217.376 567.443 218 565.732 218H565.524C563.814 218 562.335 217.376 561.087 216.128C559.839 214.926 559.215 213.447 559.215 211.69V173.556C559.215 164.958 562.266 157.585 568.367 151.438C574.469 145.336 581.841 142.285 590.485 142.285C600.793 142.285 609.09 146.399 615.377 154.627C621.617 146.399 629.891 142.285 640.199 142.285C648.843 142.285 656.216 145.336 662.317 151.438C668.419 157.585 671.47 164.958 671.47 173.556V211.69C671.47 213.447 670.869 214.926 669.667 216.128C668.419 217.376 666.917 218 665.16 218H665.021C663.265 218 661.786 217.376 660.584 216.128C659.336 214.926 658.712 213.447 658.712 211.69V173.556C658.712 168.471 656.909 164.126 653.304 160.521C649.698 156.915 645.33 155.112 640.199 155.112C635.115 155.112 630.77 156.915 627.164 160.521C623.559 164.126 621.756 168.471 621.756 173.556V211.69C621.756 213.447 621.132 214.926 619.884 216.128C618.682 217.376 617.203 218 615.446 218H615.308C613.551 218 612.049 217.376 610.801 216.128C609.553 214.926 608.929 213.447 608.929 211.69V173.556C608.929 168.471 607.126 164.126 603.521 160.521C599.915 156.915 595.57 155.112 590.485 155.112C585.401 155.112 581.056 156.915 577.45 160.521C573.845 164.126 572.042 168.471 572.042 173.556V211.69ZM704.82 155.112C702.232 155.112 700.036 156.014 698.233 157.816C696.431 159.665 695.529 161.861 695.529 164.403C695.529 168.009 697.24 170.713 700.66 172.516C701.723 173.07 705.722 174.272 712.655 176.121C717.832 177.6 721.623 179.495 724.026 181.807C727.447 185.042 729.157 189.734 729.157 195.882C729.157 201.983 727.008 207.207 722.709 211.552C718.364 215.851 713.141 218 707.039 218H688.942C687.232 218 685.753 217.376 684.505 216.128C683.257 214.926 682.633 213.447 682.633 211.69V211.552C682.633 209.795 683.257 208.293 684.505 207.045C685.753 205.797 687.232 205.173 688.942 205.173H707.732C710.321 205.173 712.517 204.271 714.319 202.469C716.122 200.666 717.023 198.47 717.023 195.882C717.023 192.461 715.313 189.919 711.893 188.255C711.107 187.885 707.108 186.683 699.897 184.649C694.767 183.124 690.976 181.183 688.526 178.825C685.106 175.451 683.396 170.644 683.396 164.403C683.396 158.302 685.545 153.102 689.844 148.803C694.189 144.458 699.412 142.285 705.514 142.285H718.271C720.028 142.285 721.53 142.909 722.778 144.157C724.026 145.405 724.65 146.908 724.65 148.664V148.803C724.65 150.559 724.026 152.038 722.778 153.24C721.53 154.488 720.028 155.112 718.271 155.112H704.82Z" fill="currentColor"/>
</svg>
