<svg width="74" height="74" viewBox="0 0 74 74" fill="none" xmlns="http://www.w3.org/2000/svg">
<path d="M45.6484 28.4375H65.4062C67.75 28.4375 69.7656 29.2812 71.4531 30.9688C73.1406 32.6562 73.9844 34.6719 73.9844 37.0156V37.1562C73.9844 39.5469 73.1406 41.5391 71.4531 43.1328C69.7656 44.8203 67.75 45.6641 65.4062 45.6641H45.6484V65.4219C45.6484 67.7656 44.8047 69.7812 43.1172 71.4688C41.4297 73.1562 39.4141 74 37.0703 74H36.9297C34.5391 74 32.5469 73.1562 30.9531 71.4688C29.2656 69.7812 28.4219 67.7656 28.4219 65.4219V45.6641H8.52344C6.13281 45.6641 4.14062 44.8203 2.54688 43.1328C0.859375 41.5391 0.015625 39.5469 0.015625 37.1562V37.0156C0.015625 34.6719 0.859375 32.6562 2.54688 30.9688C4.14062 29.2812 6.13281 28.4375 8.52344 28.4375H28.4219V8.53906C28.4219 6.14844 29.2656 4.15625 30.9531 2.5625C32.5469 0.875 34.5391 0.03125 36.9297 0.03125H37.0703C39.4141 0.03125 41.4297 0.875 43.1172 2.5625C44.8047 4.15625 45.6484 6.14844 45.6484 8.53906V28.4375Z" fill="white"/>
</svg>
