<svg width="57" height="58" viewBox="0 0 57 58" fill="none" xmlns="http://www.w3.org/2000/svg">
<path d="M28.5001 57.3958C27.3904 57.3958 26.4601 57.0204 25.7095 56.2697C24.9588 55.5191 24.5834 54.5888 24.5834 53.4791V32.9166H4.02091C2.91119 32.9166 1.98098 32.5413 1.23029 31.7906C0.479595 31.0399 0.104248 30.1097 0.104248 29C0.104248 27.8902 0.479595 26.96 1.23029 26.2093C1.98098 25.4586 2.91119 25.0833 4.02091 25.0833H24.5834V4.52079C24.5834 3.41107 24.9588 2.48086 25.7095 1.73017C26.4601 0.979473 27.3904 0.604126 28.5001 0.604126C29.6098 0.604126 30.54 0.979473 31.2907 1.73017C32.0414 2.48086 32.4167 3.41107 32.4167 4.52079V25.0833H52.9792C54.089 25.0833 55.0192 25.4586 55.7699 26.2093C56.5206 26.96 56.8959 27.8902 56.8959 29C56.8959 30.1097 56.5206 31.0399 55.7699 31.7906C55.0192 32.5413 54.089 32.9166 52.9792 32.9166H32.4167V53.4791C32.4167 54.5888 32.0414 55.5191 31.2907 56.2697C30.54 57.0204 29.6098 57.3958 28.5001 57.3958Z" fill="#5C253D"/>
</svg>
